HIERARCHY
ROOT Hips
{
   OFFSET 0.00000 0.00000 0.00000
   CHANNELS 6 Xposition Yposition Zposition Zrotation Xrotation Yrotation
   JOINT Spine
   {
      OFFSET 0.000000 11.890501 0.000000
      CHANNELS 3 Zrotation Xrotation Yrotation
      JOINT Spine1
      {
         OFFSET -0.000000 25.657401 0.127660
         CHANNELS 3 Zrotation Xrotation Yrotation
         JOINT HEad
         {
            OFFSET 0.000000 8.734161 0.011340
            CHANNELS 3 Zrotation Xrotation Yrotation
            End Site
            {
               OFFSET -0.290000 12.774200 2.513950
            }
         }
         JOINT LeftShoulder1
         {
            OFFSET 8.990000 -0.362250 -0.220000
            CHANNELS 3 Zrotation Xrotation Yrotation
            JOINT LeftArm
            {
               OFFSET 10.282700 -0.003380 0.322120
               CHANNELS 3 Zrotation Xrotation Yrotation
               JOINT LeftForeArm
               {
                  OFFSET 32.766900 0.099140 -1.424340
                  CHANNELS 3 Zrotation Xrotation Yrotation
                  JOINT LeftHand
                  {
                     OFFSET 27.564301 0.085360 1.022160
                     CHANNELS 3 Zrotation Xrotation Yrotation
                     End Site
                     {
                        OFFSET 16.744301 -0.600000 1.502910
                     }
                  }
               }
            }
         }
         JOINT RightShoulder
         {
            OFFSET -8.990000 -0.362250 -0.220000
            CHANNELS 3 Zrotation Xrotation Yrotation
            JOINT RightArm
            {
               OFFSET -10.282700 -0.003380 0.322120
               CHANNELS 3 Zrotation Xrotation Yrotation
               JOINT RightForeArm
               {
                  OFFSET -32.897098 0.099140 -1.424340
                  CHANNELS 3 Zrotation Xrotation Yrotation
                  JOINT RightHand
                  {
                     OFFSET -27.492101 0.085360 1.022160
                     CHANNELS 3 Zrotation Xrotation Yrotation
                     End Site
                     {
                        OFFSET -16.631201 -0.600000 1.502910
                     }
                  }
               }
            }
         }
      }
   }
   JOINT LeftUpLeg
   {
      OFFSET 8.945800 -8.667070 0.101650
      CHANNELS 3 Zrotation Xrotation Yrotation
      JOINT LeftLeg
      {
         OFFSET 0.000000 -44.422697 1.372700
         CHANNELS 3 Zrotation Xrotation Yrotation
         JOINT LeftFoot
         {
            OFFSET -0.253550 -42.092399 -1.460590
            CHANNELS 3 Zrotation Xrotation Yrotation
            JOINT LeftToes
            {
               OFFSET -0.040000 -4.415090 8.499099
               CHANNELS 3 Zrotation Xrotation Yrotation
               End Site
               {
                  OFFSET 0.080000 -0.047450 9.779790
               }
            }
         }
      }
   }
   JOINT RightUpLeg
   {
      OFFSET -8.945800 -8.667070 0.101650
      CHANNELS 3 Zrotation Xrotation Yrotation
      JOINT RightLeg
      {
         OFFSET 0.000000 -44.422697 1.372700
         CHANNELS 3 Zrotation Xrotation Yrotation
         JOINT RightFoot
         {
            OFFSET 0.253550 -42.092399 -1.460590
            CHANNELS 3 Zrotation Xrotation Yrotation
            JOINT RightToes
            {
               OFFSET 0.040000 -4.415090 8.499099
               CHANNELS 3 Zrotation Xrotation Yrotation
               End Site
               {
                  OFFSET -0.080000 -0.137450 9.779790
               }
            }
         }
      }
   }
}
MOTION
Frames: 18
Frame Time: 0.016670
54.058551 82.032918 27.326624 32.886036 47.141156 88.676551 -26.423692 24.132402 21.628474 -10.295230 48.331604 13.321356 -26.365024 -3.444654 1.821729 -11.802816 -25.944812 -43.333876 11.869000 -33.658240 16.763133 -40.133782 -38.593291 -62.098290 -93.164327 -52.847311 -92.586540 -57.155880 50.437713 86.704204 139.274633 83.870850 150.933138 5.712506 180.108933 74.725070 0.562708 -17.346078 43.963182 32.006519 5.091483 30.711973 -37.698502 36.875266 123.954915 -16.783281 29.867925 5.640790 23.903321 -24.917490 -58.900614 -24.051220 12.749092 14.075296 7.215861 29.686499 -22.567473 36.674827 33.682111 9.823387 -111.686085 -19.981520 -43.803967
52.930235 84.041299 26.128897 26.323158 43.083426 92.829641 -30.563990 24.022986 22.136527 -8.558082 48.215535 10.831997 -24.309045 -4.707002 0.519028 -6.893207 -19.793885 -41.511315 22.023059 -41.442917 27.557447 -30.675442 -39.372257 -56.955889 -88.464883 -54.495583 -88.914993 -55.436691 49.153443 83.879258 134.319577 80.712680 155.045021 6.590096 177.078487 73.278757 -0.781301 -18.939963 45.843782 32.643219 4.863065 39.974570 -36.130307 35.912100 112.523050 -17.983412 27.768747 8.805351 15.669907 -32.914890 -52.023990 -20.669148 7.783602 11.849862 6.953810 28.055128 -21.944749 39.097102 35.550226 8.356366 -113.543350 -21.137207 -42.241776
52.108587 86.504229 25.165772 24.359154 42.065824 95.824836 -32.280188 24.401220 22.962030 -5.919007 48.409987 8.716251 -23.019539 -6.020039 -0.350204 -9.348998 -4.680466 -38.516506 32.063801 -51.371294 23.970284 -20.124048 -39.495787 -53.742097 -89.988289 -53.432266 -95.164336 -53.558969 48.818453 81.729798 129.542556 77.389916 159.682241 7.302271 172.861720 71.222699 -2.876196 -20.353166 46.880072 27.818568 3.492095 61.101165 -17.373508 43.847479 71.337071 -12.329196 20.575755 13.656481 17.767760 -31.174817 -42.312687 -19.523220 6.573846 10.385562 5.130865 26.503596 -21.300216 40.821544 37.648180 5.919863 -114.794771 -21.580355 -40.295043
51.635174 89.156092 24.532430 24.504265 42.212980 100.635358 -34.188051 25.315934 25.641032 -4.784218 47.896411 6.653324 -22.349916 -6.849693 -0.805856 -8.628446 10.593780 -35.644561 37.861368 -58.030885 18.668792 -9.864537 -38.466410 -48.596758 -91.393539 -50.918200 -98.771885 -54.307647 47.711002 81.720461 122.592538 74.287255 166.650346 8.176906 168.332976 69.747973 -5.444894 -21.901037 46.825547 22.239523 -2.010305 90.852513 27.907914 40.729104 -3.488336 -6.390941 18.236407 19.234332 17.404377 -29.443303 -33.723762 -19.545146 9.128603 8.835232 4.865397 24.148484 -20.443492 43.538375 39.825655 3.945708 -115.326856 -20.402381 -37.868652
51.418199 91.921748 24.065654 21.047281 41.911157 100.560390 -34.881513 23.305770 29.567896 -5.300946 47.575362 4.716338 -21.075139 -8.079433 -1.039057 -8.434817 22.806167 -31.147247 37.327718 -64.413465 9.695453 0.953985 -36.777553 -45.596130 -91.569710 -48.258350 -103.547389 -54.157704 48.376136 82.710838 117.111257 70.573544 173.561445 8.392487 162.966415 67.406304 -8.021136 -22.968290 45.450917 18.234990 -3.040906 100.372123 30.598824 37.609863 -13.280414 -2.048596 17.213713 25.301881 16.565324 -29.112305 -26.147238 -20.698507 6.636402 6.968733 4.598939 22.925195 -20.090293 46.055904 41.438105 1.612031 -115.273403 -18.822647 -35.493635
51.299333 94.530018 23.474924 17.191526 40.304386 100.974853 -34.694516 18.848190 34.160167 -4.688037 44.858791 4.466807 -18.110791 -11.095186 -1.426521 -8.570001 35.035196 -28.899353 36.113676 -66.290176 2.343881 10.612465 -32.429496 -44.304183 -90.737021 -44.032013 -110.921241 -54.001142 47.555988 85.866850 111.706330 67.259079 180.075000 4.728862 156.929115 60.624172 -11.396634 -24.111591 39.696653 14.568954 -5.966670 101.155013 31.025356 35.377450 -15.010982 -1.281267 18.019349 28.615952 17.662936 -27.488578 -20.290325 -20.504559 3.411984 5.815547 4.382132 21.323844 -19.136305 47.309988 43.719505 -1.287798 -115.819286 -17.303687 -31.759983
51.330156 96.665524 22.962429 12.046248 38.829605 103.372365 -33.736179 15.923075 36.595993 -4.911618 45.316314 1.930331 -16.082596 -13.006644 -1.476237 -7.948305 43.223930 -28.857713 39.792607 -66.471852 2.917973 20.345334 -30.684082 -43.220167 -90.642792 -45.250181 -112.370846 -54.124892 48.543445 87.674774 107.792632 62.199910 184.564566 6.084172 153.273570 57.460216 -13.639192 -25.466982 38.050625 11.842123 -9.953364 96.628469 28.014410 34.024007 -12.360877 -2.241814 21.133949 28.300742 19.487039 -24.554533 -21.348407 -21.064131 -0.139102 4.819667 4.507253 18.698439 -17.886438 48.059779 45.880402 -3.942885 -117.765466 -12.974083 -33.177777
51.460857 98.468140 22.426595 8.449254 36.722758 105.054450 -33.872759 12.872150 37.424703 -3.601932 45.736610 -0.977931 -16.769636 -14.661052 -0.794644 -3.687845 45.970902 -27.906087 46.931275 -67.649465 6.442647 28.071147 -30.989374 -38.897623 -89.366093 -46.450143 -115.341309 -53.163047 50.816293 89.687747 104.683932 57.667793 187.536941 13.383475 149.934646 59.378195 -13.830836 -25.685232 47.996846 8.905869 -14.254297 88.796339 26.789259 31.761848 -10.830483 -5.842276 26.769000 26.641202 23.016556 -20.910310 -25.716152 -21.036154 -2.906487 4.954629 4.193219 16.506431 -16.237579 48.168516 48.470414 -6.578448 -119.623851 -10.249607 -32.448706
51.435012 100.180911 22.009070 5.084619 34.892496 104.870909 -32.690180 12.763813 37.795422 -2.555793 45.754867 -2.610516 -15.842953 -15.100141 -0.159859 0.686502 50.526645 -28.491079 53.605982 -66.431520 11.511240 33.662413 -30.282955 -33.905469 -88.091948 -48.014867 -116.869372 -53.084155 50.230301 90.292738 101.142759 52.887500 191.716949 15.075793 144.924252 54.036625 -13.164647 -24.292596 51.935495 5.263741 -17.219098 79.920412 26.276948 29.349883 -10.625143 -10.616540 30.205726 24.450925 26.132444 -18.696422 -30.600245 -19.140702 -6.052782 2.077030 3.831634 15.755520 -18.092090 48.664125 47.292442 -10.117771 -120.011983 -6.727692 -32.502183
51.113071 101.631163 21.732070 3.723939 31.080369 108.126423 -31.047311 11.945355 36.515848 -2.269909 46.795170 -3.689055 -15.578792 -15.171602 0.856285 5.820015 52.895785 -30.854843 59.256693 -66.184267 18.615189 36.712342 -32.057165 -28.179330 -87.127006 -49.829553 -118.861916 -52.972895 49.481729 90.949843 99.433026 47.852008 194.686291 16.011814 138.947795 49.042117 -12.655263 -22.204165 54.459134 4.193630 -17.972347 71.720026 23.617321 28.139795 -9.003855 -16.685934 30.108556 23.537346 27.163249 -20.972415 -35.845297 -16.367999 -6.833181 -0.549907 4.447391 15.296769 -19.544287 49.487292 46.298181 -12.956611 -120.668774 -5.650395 -30.175506
50.605878 102.948435 21.420192 3.438904 25.783409 113.031400 -30.368749 11.257324 35.007083 -1.116279 47.072731 -3.264415 -16.400203 -14.500608 2.258353 12.619325 52.335648 -32.925067 64.876525 -66.778841 23.830223 38.716422 -36.418026 -23.502727 -86.255857 -56.522592 -116.173431 -53.624413 48.565408 91.717699 99.325588 43.018635 197.665033 17.632405 132.324615 46.392322 -13.432462 -21.496408 51.602513 6.495111 -18.270848 64.649872 19.442847 29.341400 -6.425835 -20.532916 29.597580 23.756462 27.559453 -23.083306 -39.418115 -12.847632 -7.277721 -2.487714 5.415919 14.620478 -20.654624 50.131451 45.884060 -15.563532 -121.413743 -4.350346 -28.975028
50.074538 103.881997 21.037769 2.734557 21.368259 115.669472 -28.600895 14.109152 32.539923 -0.158718 47.659045 -3.620190 -16.271158 -13.868021 3.691570 21.234059 58.448497 -37.492264 72.193945 -66.058844 29.872563 40.443647 -33.939408 -20.058923 -85.945834 -57.860349 -114.893358 -55.141866 43.927887 90.900727 100.120465 38.982451 203.119362 14.962395 124.640024 39.729438 -14.251378 -19.861451 45.197605 6.773078 -18.543340 54.768090 15.869364 28.223501 -3.612389 -24.172509 29.135313 24.183728 30.187698 -14.549847 -31.054968 -10.094376 -8.452756 -3.894091 6.651786 13.397645 -22.006612 50.831723 44.122462 -16.917134 -122.263829 -4.092903 -27.241053
49.545454 104.368990 20.531346 2.501727 18.048560 119.744390 -27.463844 14.138233 30.200784 1.030950 48.877780 -3.992398 -17.459657 -14.453618 5.582901 29.018137 63.644229 -39.679475 77.279110 -68.166586 36.086092 41.366354 -31.278769 -16.210337 -85.280287 -61.238090 -112.058911 -58.008161 41.708694 90.989512 101.895754 35.855932 205.991702 15.238422 118.650358 37.345856 -15.046856 -19.247417 42.167331 5.954421 -18.270698 43.774252 12.783412 26.657745 -0.225427 -26.769227 28.659948 24.888721 26.944172 -22.519388 -41.472106 -8.324460 -8.541278 -4.578336 7.497733 11.789351 -23.401838 51.475564 42.180871 -17.898504 -122.877043 -3.913485 -26.171055
49.059734 104.589756 19.960336 4.229928 17.375612 123.843023 -22.603157 6.726930 25.584405 4.097746 49.628848 -4.961532 -20.602637 -16.925946 8.303048 38.933885 69.389080 -41.599120 81.919008 -69.278049 40.698013 41.925112 -26.795223 -13.167916 -84.704892 -62.147413 -110.623479 -60.703095 41.908425 92.566911 105.472293 33.963611 205.362205 15.420764 112.548704 35.528083 -16.034410 -19.210679 40.846382 3.724567 -15.263156 32.072519 10.203096 24.096404 4.186360 -28.448966 28.510960 26.327917 31.582207 -10.996415 -29.086914 -8.884330 -6.114489 -3.791370 8.927402 10.679872 -24.568411 51.525800 40.624862 -19.114868 -123.409552 -3.937707 -24.877074
48.894381 104.668091 19.453079 3.103109 14.652057 126.392637 -17.763816 2.647966 22.177141 3.937353 51.418736 -6.485233 -22.299852 -17.254057 10.918248 44.221503 74.809505 -45.081154 86.327294 -69.499627 44.734198 43.299540 -24.152659 -11.673012 -83.354051 -63.811097 -109.311338 -61.946558 41.234047 93.909200 107.962157 33.487209 205.202993 15.840206 105.455477 34.610440 -17.660209 -20.486673 39.944247 3.326815 -14.561663 19.393200 6.883383 20.928946 8.963209 -29.141381 29.304906 27.844070 32.373912 -9.251552 -29.063411 -8.754646 -6.945213 -2.999027 10.606890 8.915360 -25.727887 51.374122 38.517376 -19.625143 -123.606657 -4.473566 -24.245778
48.945917 104.824923 18.924967 2.077799 11.299101 128.387517 -13.890785 -0.878606 19.443392 3.317441 52.432787 -7.279926 -23.535169 -16.769083 13.585070 47.779738 78.352652 -48.343198 91.137222 -69.719873 47.972066 44.432802 -22.545167 -10.777027 -81.470435 -65.241605 -109.118706 -64.125784 41.091200 95.494603 109.300881 32.191576 205.333450 16.573461 101.068222 34.434761 -17.921376 -20.382398 40.570156 4.550323 -14.308334 6.634851 3.519783 17.762226 15.170876 -29.741611 28.889204 29.103658 34.104422 -3.962048 -23.704614 -7.796714 -8.731262 -2.742964 12.813189 6.962357 -27.286172 50.936279 36.295697 -20.398486 -123.054997 -4.549379 -24.065500
49.213280 104.948338 18.408057 1.107029 8.195242 129.651703 -9.967184 -3.773440 17.141381 2.378027 52.716793 -8.041461 -23.961041 -16.192488 15.906749 49.880786 80.560845 -51.523904 96.005911 -69.942701 50.727654 45.221231 -21.281357 -10.206531 -79.598731 -66.872606 -108.683746 -66.321144 40.585028 97.000216 109.488800 30.472756 206.074635 17.022396 98.341385 34.261004 -17.706910 -19.917491 40.755466 6.177708 -14.631153 -6.328278 0.408457 14.931856 22.598091 -29.431596 29.034349 30.925877 34.877883 -1.469566 -21.309365 -7.191256 -10.681202 -1.869097 14.520741 5.706403 -28.312828 50.705699 34.209252 -20.474720 -122.234131 -4.926516 -23.973093
49.570483 105.098141 17.904540 0.260238 6.577625 130.265204 -5.806445 -5.101572 15.129453 1.276022 53.726773 -8.960124 -23.003695 -15.295874 17.734707 50.392193 83.168222 -54.193364 100.569720 -70.239452 53.667610 45.877124 -19.581654 -10.907008 -77.879449 -67.305873 -108.902558 -68.449881 40.192368 98.263760 109.271607 29.307659 207.449115 17.251816 96.404008 34.162024 -17.296662 -19.452835 41.614632 8.009309 -15.371621 -19.969998 -4.987553 11.943514 31.964203 -27.364268 29.535698 32.014545 35.842292 1.291117 -18.609603 -7.604436 -11.957313 -0.841521 16.330620 5.154985 -29.109143 50.390014 32.260923 -20.502211 -121.185765 -5.360802 -23.756475
